<mxfile host="app.diagrams.net" modified="2021-05-16T15:02:32.192Z" agent="5.0 (X11; Linux x86_64) AppleWebKit/537.36 (KHTML, like Gecko) Chrome/89.0.4389.114 Safari/537.36" etag="g-M-xL2Q0n7qNckCO25K" version="14.6.13" type="github">
  <diagram id="oqReTooRUuA69L6Tvc4Z" name="Page-1">
    <mxGraphModel dx="782" dy="408" grid="1" gridSize="10" guides="1" tooltips="1" connect="1" arrows="1" fold="1" page="1" pageScale="1" pageWidth="827" pageHeight="1169" math="1" shadow="0">
      <root>
        <mxCell id="0" />
        <mxCell id="1" parent="0" />
        <mxCell id="6FfrE_JMvudf6pYXvR1P-4" value="" style="edgeStyle=orthogonalEdgeStyle;rounded=0;orthogonalLoop=1;jettySize=auto;html=1;" parent="1" source="6FfrE_JMvudf6pYXvR1P-1" target="6FfrE_JMvudf6pYXvR1P-3" edge="1">
          <mxGeometry relative="1" as="geometry" />
        </mxCell>
        <mxCell id="6FfrE_JMvudf6pYXvR1P-1" value="&lt;font face=&quot;Times New Roman&quot;&gt;$$S_1$$&lt;/font&gt;" style="text;html=1;strokeColor=none;fillColor=none;align=center;verticalAlign=middle;whiteSpace=wrap;rounded=0;" parent="1" vertex="1">
          <mxGeometry x="251" y="130" width="40" height="20" as="geometry" />
        </mxCell>
        <mxCell id="6FfrE_JMvudf6pYXvR1P-3" value="&lt;font face=&quot;Times New Roman&quot;&gt;$$S_1\prime$$&lt;/font&gt;" style="text;html=1;strokeColor=none;fillColor=none;align=center;verticalAlign=middle;whiteSpace=wrap;rounded=0;" parent="1" vertex="1">
          <mxGeometry x="251" y="230" width="40" height="20" as="geometry" />
        </mxCell>
        <mxCell id="6FfrE_JMvudf6pYXvR1P-8" value="" style="edgeStyle=orthogonalEdgeStyle;rounded=0;orthogonalLoop=1;jettySize=auto;html=1;" parent="1" source="6FfrE_JMvudf6pYXvR1P-5" target="6FfrE_JMvudf6pYXvR1P-7" edge="1">
          <mxGeometry relative="1" as="geometry" />
        </mxCell>
        <mxCell id="6FfrE_JMvudf6pYXvR1P-5" value="&lt;font face=&quot;Times New Roman&quot;&gt;$$S_2$$&lt;/font&gt;" style="text;html=1;strokeColor=none;fillColor=none;align=center;verticalAlign=middle;whiteSpace=wrap;rounded=0;" parent="1" vertex="1">
          <mxGeometry x="371" y="130" width="40" height="20" as="geometry" />
        </mxCell>
        <mxCell id="6FfrE_JMvudf6pYXvR1P-7" value="&lt;font face=&quot;Times New Roman&quot;&gt;$$S_2\prime$$&lt;/font&gt;" style="text;html=1;strokeColor=none;fillColor=none;align=center;verticalAlign=middle;whiteSpace=wrap;rounded=0;" parent="1" vertex="1">
          <mxGeometry x="371" y="230" width="40" height="20" as="geometry" />
        </mxCell>
        <mxCell id="6FfrE_JMvudf6pYXvR1P-9" value="" style="endArrow=none;dashed=1;html=1;dashPattern=1 3;strokeWidth=2;exitX=1;exitY=0.75;exitDx=0;exitDy=0;entryX=0;entryY=0.75;entryDx=0;entryDy=0;" parent="1" source="6FfrE_JMvudf6pYXvR1P-3" target="6FfrE_JMvudf6pYXvR1P-7" edge="1">
          <mxGeometry width="50" height="50" relative="1" as="geometry">
            <mxPoint x="440" y="260" as="sourcePoint" />
            <mxPoint x="490" y="210" as="targetPoint" />
            <Array as="points">
              <mxPoint x="360" y="245" />
            </Array>
          </mxGeometry>
        </mxCell>
        <mxCell id="6FfrE_JMvudf6pYXvR1P-10" value="$$t$$" style="text;html=1;strokeColor=none;fillColor=none;align=center;verticalAlign=middle;whiteSpace=wrap;rounded=0;" parent="1" vertex="1">
          <mxGeometry x="230" y="180" width="40" height="20" as="geometry" />
        </mxCell>
        <mxCell id="6FfrE_JMvudf6pYXvR1P-12" value="$$t$$" style="text;html=1;strokeColor=none;fillColor=none;align=center;verticalAlign=middle;whiteSpace=wrap;rounded=0;" parent="1" vertex="1">
          <mxGeometry x="360" y="180" width="40" height="20" as="geometry" />
        </mxCell>
        <mxCell id="6FfrE_JMvudf6pYXvR1P-13" value="$$\sim$$" style="text;html=1;strokeColor=none;fillColor=none;align=center;verticalAlign=middle;whiteSpace=wrap;rounded=0;" parent="1" vertex="1">
          <mxGeometry x="310" y="110" width="40" height="20" as="geometry" />
        </mxCell>
        <mxCell id="6FfrE_JMvudf6pYXvR1P-14" value="$$\sim$$" style="text;html=1;strokeColor=none;fillColor=none;align=center;verticalAlign=middle;whiteSpace=wrap;rounded=0;" parent="1" vertex="1">
          <mxGeometry x="310" y="210" width="40" height="20" as="geometry" />
        </mxCell>
        <mxCell id="-f8K65gNCovicVoB1r87-1" value="" style="endArrow=none;html=1;entryX=0;entryY=0.5;entryDx=0;entryDy=0;" edge="1" parent="1" target="6FfrE_JMvudf6pYXvR1P-5">
          <mxGeometry width="50" height="50" relative="1" as="geometry">
            <mxPoint x="290" y="140" as="sourcePoint" />
            <mxPoint x="430" y="190" as="targetPoint" />
          </mxGeometry>
        </mxCell>
      </root>
    </mxGraphModel>
  </diagram>
</mxfile>
